<svg width="64" height="64" xmlns="http://www.w3.org/2000/svg">
  <circle fill="#C9D9D9" cx="32" cy="32" r="32" />
  <circle fill="#E7EEEE" cx="32" cy="32" r="30" />
  <path fill="#446060" d="M28.36 51.54c2.96 0 5.47-.52 7.52-1.57a11.67 11.67 0 004.9-4.71h.25l.58 5.63h7.47V28.62c0-5.52-1.4-9.74-4.2-12.68-2.81-2.93-6.84-4.4-12.08-4.4-3.47 0-6.43.69-8.9 2.06a18.94 18.94 0 00-6.2 5.49l6.4 4.98a11.25 11.25 0 013.55-3.22 9.63 9.63 0 014.71-1.08c2.46 0 4.35.66 5.7 1.99 1.33 1.32 2 3.13 2 5.41v.4H29.07c-4.4 0-7.85 1.08-10.34 3.25-2.5 2.16-3.74 5.1-3.74 8.8 0 3.62 1.2 6.5 3.6 8.67 2.39 2.17 5.64 3.25 9.76 3.25zm1.59-7.33c-1.93 0-3.42-.44-4.48-1.32a4.5 4.5 0 01-1.59-3.66c0-1.54.54-2.73 1.6-3.57 1.08-.85 2.61-1.27 4.61-1.27h9.96v.62c0 1.85-.42 3.47-1.26 4.85a8.5 8.5 0 01-3.52 3.21 11.7 11.7 0 01-5.32 1.14z" />
</svg>
